<?xml version="1.0" encoding="UTF-8"?>
<!DOCTYPE svg PUBLIC "-//W3C//DTD SVG 1.1//EN" "http://www.w3.org/Graphics/SVG/1.1/DTD/svg11.dtd">
<!-- Creator: CorelDRAW 2020 (64-Bit) -->
<svg xmlns="http://www.w3.org/2000/svg" xml:space="preserve" width="173.39mm" height="80.0612mm" version="1.1" style="shape-rendering:geometricPrecision; text-rendering:geometricPrecision; image-rendering:optimizeQuality; fill-rule:evenodd; clip-rule:evenodd"
viewBox="0 0 5264.61 2430.89"
 xmlns:xlink="http://www.w3.org/1999/xlink"
 xmlns:xodm="http://www.corel.com/coreldraw/odm/2003">
 <defs>
  <style type="text/css">
   <![CDATA[
    .fil5 {fill:#EF7F1A}
    .fil4 {fill:#E32124}
    .fil6 {fill:#FDEC06}
    .fil2 {fill:#AA2582}
    .fil3 {fill:#1D9CD7}
    .fil1 {fill:#0C9745}
    .fil0 {fill:#393185}
   ]]>
  </style>
 </defs>
 <g id="Слой_x0020_1">
  <metadata id="CorelCorpID_0Corel-Layer"/>
  <path class="fil0" d="M1155.85 4.13c-156.64,22.79 -250.67,66.68 -363.22,170.31 -62.74,57.77 -118.54,150.34 -147.94,232.67 -28.48,79.76 -40.98,174.43 -30.62,267.35 21.78,195.27 135.28,367.58 300.15,460.52 187.79,105.85 419.01,110.64 604.53,2.23 4.83,-2.83 16.7,-10.7 22.71,-12.85 15.7,-5.61 -4.58,1.57 16.83,-11.97 32.01,-20.25 59.19,-43.5 85.31,-68.95 29.7,-28.94 63.24,-69.35 85.16,-105.04 5.28,-8.59 5.84,-12.23 12.56,-17.21l11.44 -23.07c5.07,-9.99 8.47,-16.04 13.09,-25.58 9.29,-19.2 15.73,-34.19 23.19,-54.19 74.07,-198.58 34.56,-428.65 -96.69,-589.97 -23.97,-29.46 -46.35,-55.89 -75.56,-78.6 -71.28,-55.41 -97.89,-76.93 -192.97,-113.14 -72.39,-27.56 -181.83,-45.04 -267.99,-32.51z"/>
  <path class="fil1" d="M1904.83 1216.64c-166.58,12.96 -308.11,74.53 -415.27,192.02 -107.27,117.61 -171.66,272.37 -162.36,444.56 17.65,326.92 289.99,593.49 636.75,576.94 325.26,-15.52 593.75,-290.83 577.12,-636.24 -11.54,-239.72 -160.94,-445.24 -377.06,-533.34 -72.95,-29.74 -171.74,-50.73 -259.18,-43.93z"/>
  <path class="fil2" d="M3899.06 3.08c-100.15,9.06 -159.74,28.16 -237.48,65.98 -25.78,12.54 -70.22,41.5 -92.64,58.96 -50.65,39.44 -109.77,102.33 -143.79,159.72 -133.73,225.64 -120.74,485.1 36.53,693.23 65.6,86.82 158.57,154.07 260.43,194.46 75.22,29.83 168.75,46.04 262.02,39.14 189.79,-14.03 322.6,-105.14 408.01,-199.06 89.88,-98.82 169.48,-256.13 155.23,-448.43 -9.34,-125.98 -53.19,-237.75 -125.42,-330.43 -50.95,-65.38 -93.41,-101.28 -159.66,-143.69 -101.22,-64.81 -237.16,-101.31 -363.23,-89.9z"/>
  <path class="fil3" d="M2532.38 3.17c-89.85,8.23 -166.33,30.45 -236.26,68.06 -15.97,8.59 -32.76,17.73 -46.84,27.62 -83.03,58.26 -133.82,105.91 -187.91,192.79 -18.48,29.67 -35.91,64.91 -49.81,101.74 -29.95,79.34 -44.58,168.69 -37.34,262.64 33.1,428.99 488.13,692.35 888.3,490.52 33.57,-16.93 66.48,-39.13 92.08,-59.37 32.62,-25.78 51.08,-45.54 77.57,-74.25 160.38,-173.8 207.75,-453.23 85.2,-687.6 -8.61,-16.47 -18.26,-33.47 -27.43,-47.22 -9.92,-14.88 -22.07,-33.45 -32.18,-44.91 -12.36,-14.02 -23.36,-26.31 -34.95,-39.61 -111.24,-127.64 -308.04,-207.13 -490.45,-190.41z"/>
  <path class="fil4" d="M3262.86 1217.02c-332.84,22.67 -587.72,291.06 -573.73,636.1 6.44,158.78 84.3,318.03 192.58,414.7 50.51,45.08 107.94,87.78 185.18,118.23 422.81,166.66 860.2,-156.88 835.28,-596.54 -8.92,-157.39 -84.43,-318.36 -194.39,-411.98l-62.14 -50.94c-28.57,-22.3 -87.68,-52.97 -123.15,-67 -76.25,-30.16 -167.53,-48.84 -259.63,-42.57z"/>
  <path class="fil5" d="M4620.76 1217.27c-91.43,6.01 -169.01,28.88 -239.57,64.88 -35.58,18.15 -84.34,50.36 -113.35,74.45 -143.25,119 -227.28,306.05 -216.7,501.72 17.39,321.72 293.07,591.64 643.83,571.24 321.01,-18.66 589.29,-294.98 568.51,-645.95 -5.24,-88.53 -30.24,-168.47 -65.86,-237.84 -107.8,-209.92 -333.83,-344.49 -576.85,-328.51z"/>
  <path class="fil6" d="M588.57 1216.61c-170.72,10.19 -308.99,70.13 -420.82,186.44 -173.79,180.77 -217.39,452.01 -108.04,684.27 30.95,65.74 86.22,137.39 127.79,175.45 49.05,44.9 106.69,89.26 183.19,120.22 276.32,111.84 571.98,16.82 727.58,-203.63 29.81,-42.24 48.15,-71.91 68.84,-121.49 103.21,-247.32 29.63,-510.66 -141.73,-674.12 -109.34,-104.3 -273.02,-176.92 -436.81,-167.14z"/>
 </g>
</svg>
